<?xml version="1.0" encoding="UTF-8" standalone="no"?>
<!DOCTYPE svg PUBLIC "-//W3C//DTD SVG 1.1//EN" "http://www.w3.org/Graphics/SVG/1.1/DTD/svg11.dtd">
<svg width="100%" height="100%" viewBox="0 0 500 500" version="1.1" xmlns="http://www.w3.org/2000/svg" xmlns:xlink="http://www.w3.org/1999/xlink" xml:space="preserve" xmlns:serif="http://www.serif.com/" style="fill-rule:evenodd;clip-rule:evenodd;stroke-linejoin:round;stroke-miterlimit:2;">
    <g id="A-minimalist--clean-flat-vector-graphic-logo-featuring-the-letters-D-and-P--rendered-in-a-simple-vector-style-with-subtle-cyberpunk-aesthetics--utilizing-a-limited-color-palette-and-crisp-lines." serif:id="A minimalist, clean flat vector graphic logo featuring the letters D and P, rendered in a simple vector style with subtle cyberpunk aesthetics, utilizing a limited color palette and crisp lines." transform="matrix(0.526426,0,0,0.526426,-124.506174,-125.990519)">
        <path d="M0,1426.5L0,0C3.197,-2.724 3.875,0 52.5,0L1439.999,0C1442.416,3.435 1439.999,3.945 1439.999,52.5L1439.999,1439.999C1436.564,1442.416 1436.054,1439.999 1387.5,1439.999L0,1439.999C-2.59,1436.319 0,1431 0,1426.5Z" style="fill:rgb(14,22,39);"/>
        <path d="M926.384,572.382C926.894,572.48 927.17,575.569 930.5,573.167C931.127,572.714 931.16,573.153 931.678,572.743C935.304,569.88 935.858,572.84 936.829,573.817C924.284,586.034 924.392,585.877 918.13,592.094C916.985,593.255 917.078,593.137 907.927,601.85C905.982,603.702 920.814,617.304 921.244,617.745C957.462,654.693 957.36,654.62 959.387,656.616C962.013,659.2 991.292,688.015 991.759,689.383C992.962,692.907 939.579,743.115 911.497,772.497C883.806,800.447 875.463,808.637 834.459,817.354C830.38,818.221 722.301,930.169 717.548,933.576C714.131,936.026 640.528,855.793 636.493,855.811C590.649,856.009 591.455,844.515 581.768,847.833C581.151,847.064 581.173,843.108 574.039,844.21C573.689,843.97 574.399,843.177 574.05,842.937C570.796,840.704 567.113,839.165 563.729,837.134C553.402,830.938 546.725,826.932 454.931,733.084C450.815,728.876 454.079,727.818 477.878,703.881C559.481,621.806 570.021,608.347 619.531,603.785C623.555,603.414 622.983,601.894 727.619,496.624C730.031,494.198 730.895,495.768 747.046,511.947C772.54,537.486 772.213,537.596 797.695,563.272C800.88,566.482 834.705,556.145 877.709,580.13C883.682,583.462 896.025,562.511 900.584,563.03C906.787,563.736 891.773,576.476 886.768,581.733C882.669,586.039 887.45,585.811 899.705,596.225C901.48,597.734 901.727,596.011 926.384,572.382Z" style="fill:rgb(150,86,106);"/>
        <path d="M772.27,567.244C774.403,572.124 770.107,595.588 776.725,582.464C781.929,594.685 790.079,592.093 793.004,594.435C787.016,601.959 785.128,603.546 791.786,610.235C803.508,622.014 806.146,614.854 822.534,617.266C864.088,623.38 913.188,663.848 879.077,728.22C837.547,782.126 805.462,756.411 795.639,766.633C788.238,774.334 781.502,779.227 784.988,783.098C792.124,791.021 789.642,792.13 789.74,814.502C789.765,820.051 788.119,819.588 717.615,890.656C713.173,895.132 676.37,847.082 671.422,850.377C670.864,850.749 670.395,851.061 665.293,856.097C656.777,856.575 662.152,835.822 658.982,831.044C654.244,826.288 649.705,826.666 653.696,821.72C673.488,803.844 672.595,803.243 691.766,784.8C692.58,784.387 693.394,783.974 694.208,783.562C694.254,806.096 696.201,807.373 687.764,815.763C683.121,820.382 692.083,826.227 702.411,836.59C702.681,836.86 711.9,845.988 713.571,847.403C715.152,848.741 721.409,842.456 721.976,841.886C739.751,824.155 745.932,820.964 746.004,812.494C746.661,735.766 744.172,594.81 747.684,590.924C749.816,589.218 751.578,587.809 772.27,567.244Z" style="fill:rgb(14,23,40);"/>
        <path d="M723.903,543.915C729.234,539.106 728.954,537.541 731.395,538.768C732.954,539.552 732.89,539.642 747.16,553.84C754.67,561.312 731.667,567.313 734.801,577.431C734.214,579.218 734.38,579.263 731.323,582.322C692.826,620.844 684.949,626.53 687.67,629.353C689.453,631.203 691.419,632.878 693.112,634.811C695.318,637.328 694.09,769.981 693.792,771.618C692.165,772.491 692.369,772.559 688.245,776.221C665.323,798.636 655.044,810.605 651.365,811.956C639.239,801.094 638.837,801.587 638.508,801.606C570.89,805.509 541.35,743.124 562.726,699.608C586.2,651.82 639.516,658.29 640.536,657.554C658.125,644.863 645.538,633.65 648.856,629.773C656.123,621.282 650.008,618.944 653.47,614.478C655.646,611.67 714.554,553.203 719.894,547.903L723.903,543.915Z" style="fill:rgb(14,23,40);"/>
        <path d="M734.801,577.431C741.116,584.42 741.464,583.89 747.684,590.924C744.172,594.81 746.661,735.766 746.004,812.494C745.932,820.964 739.751,824.155 721.976,841.886C721.409,842.456 715.152,848.741 713.571,847.403C711.9,845.988 702.681,836.86 702.411,836.59C692.083,826.227 683.121,820.382 687.764,815.763C696.201,807.373 694.254,806.096 694.208,783.562C694.165,775.405 694.543,775.478 693.792,771.618C694.09,769.981 695.318,637.328 693.112,634.811C691.419,632.878 689.453,631.203 687.67,629.353C684.949,626.53 692.826,620.844 731.323,582.322C734.38,579.263 734.214,579.218 734.801,577.431Z" style="fill:rgb(135,94,117);"/>
        <path d="M854.593,602.212C813.665,583.972 797.729,599.423 799.193,589.44C800.056,583.552 903.214,583.961 903.809,667.502C904.2,722.366 909.937,764.829 846.532,789.579C835.122,794.033 792.997,800.592 801.594,790.674C805.505,789.9 866.828,794.673 891.558,743.529C894.318,737.821 899.041,728.054 897.408,664.501C896.31,621.751 861.672,606.09 858.713,604.16L854.593,602.212Z" style="fill:rgb(248,111,118);"/>
        <path d="M578.251,809.876C620.066,837.234 651.094,818.876 640.211,830.214C640.113,830.316 640.211,830.214 638.593,830.925C637.923,830.117 635.086,826.696 625.639,828.846C624.734,829.051 622.704,830.702 622.469,830.892C531.778,818.27 540.067,754.146 540.456,707.5C541.161,623.066 651.218,620.898 640.089,632.09C638.947,633.238 570.66,628.373 550.367,683.452C549.593,685.552 536.79,757.825 557.954,789.177C565.062,799.707 576.414,808.46 578.251,809.876Z" style="fill:rgb(114,194,239);"/>
        <path d="M574.039,844.21C581.173,843.108 581.151,847.064 581.768,847.833C573.148,856.724 520.312,911.223 472.173,957.16C468.394,960.766 464.636,956.408 464.799,954.502C465.068,951.355 567.677,850.368 574.039,844.21Z" style="fill:rgb(134,65,83);"/>
        <path d="M926.384,572.382C969.922,528.951 1014.993,484.362 1022.714,476.724C1026.184,473.292 1035.271,475.719 1026.901,483.887C1019.613,490.999 1019.887,491.087 936.829,573.817C935.858,572.84 935.304,569.88 931.678,572.743C931.16,573.153 931.127,572.714 930.5,573.167C927.17,575.569 926.894,572.48 926.384,572.382Z" style="fill:rgb(128,64,83);"/>
        <path d="M926.408,602.599C929.94,606.274 969.483,647.429 971.487,647.621C972.637,647.732 984.539,636.827 984.477,645.5C984.467,646.805 984.094,646.658 981.192,650.176C974.728,655.566 973.543,659.187 967.927,653.091C964.745,649.637 960.673,645.217 926.789,611.232C926.186,610.605 916.419,600.451 923.481,600.873C923.753,600.889 923.698,601.001 926.408,602.599Z" style="fill:rgb(175,74,80);"/>
        <path d="M688.245,776.221C691.942,778.442 691.787,784.058 691.766,784.8C672.595,803.243 673.488,803.844 653.696,821.72C651.354,817.106 652.978,816.771 651.365,811.956C655.044,810.605 665.323,798.636 688.245,776.221Z" style="fill:rgb(111,62,87);"/>
        <path d="M596.391,766.605C591.233,761.084 584.491,755.186 583.9,753.41C583.116,751.059 606.88,728.686 607.511,728.543C619.041,725.933 584.459,750.388 588.87,755.145C596.994,763.905 596.494,766.366 608.517,765.756C613.489,765.504 640.646,733.259 643.542,732.613C654.008,730.28 638.375,743.772 616.055,766.075C613.306,768.822 601.726,771.119 596.391,766.605Z" style="fill:rgb(91,64,91);"/>
        <path d="M775.609,711.609C778.988,708.014 816.754,667.841 819.544,668.317C826.55,669.513 808.727,684.983 807.352,686.353C805.053,688.644 762.137,731.407 775.609,711.609Z" style="fill:rgb(88,63,92);"/>
        <path d="M937.541,591.542C943.371,587.028 944.192,589.55 949.102,594.875C952.319,598.364 942.157,607.566 939.66,605.313C933.261,599.539 931.546,597.842 937.541,591.542Z" style="fill:rgb(159,66,76);"/>
        <path d="M742.647,873.801C746.944,875.973 745.13,877.527 745.491,877.447C750.207,876.394 746.963,886.72 745.698,882.051C743.904,875.433 739.888,883.109 741.859,885.355C745.31,889.287 733.081,891.082 728.56,889.333C722.062,886.82 732.246,886.416 734.662,881.627C737.28,876.439 739.256,878.339 742.647,873.801Z" style="fill:rgb(193,69,74);"/>
        <path d="M714.676,532.005C717.75,535.732 707.762,537.807 712.396,538.623C713.167,538.759 712.637,539.574 721.5,542.21C723.323,542.752 722.859,543.174 723.903,543.915L719.894,547.903C717.928,546.629 717.738,545.441 710.72,541.312C706.577,538.876 708.678,536.874 704.6,534.321C701.931,532.65 703.443,524.88 705.801,527.406C709.636,531.513 710.073,531.121 710.146,531.598C710.627,534.755 711.862,533.361 714.676,532.005Z" style="fill:rgb(186,85,96);"/>
        <path d="M872.429,634.361C873.626,632.772 878.958,616.806 884.206,631.679C885.993,636.742 876.96,648.023 877.903,639.715C878.359,635.695 873.048,633 874.108,635.871C874.461,636.824 876.008,636.752 876.673,637.52C877.149,638.069 872.644,640.433 872.429,634.361Z" style="fill:rgb(204,73,78);"/>
        <path d="M686.261,870.849C681.859,873.919 678.025,869.932 678.18,875.396C678.304,879.796 671.625,878.455 670.5,880.602C669.018,883.431 666.861,877.471 669.438,876.29C677.675,872.515 679.553,863.799 686.261,870.849Z" style="fill:rgb(216,77,84);"/>
        <path d="M772.27,567.244C777.634,564.535 776.754,568.797 776.725,582.464C770.107,595.588 774.403,572.124 772.27,567.244Z" style="fill:rgb(17,24,40);"/>
        <path d="M803.397,889.401C783.87,906.506 825.16,861.715 820.161,872.384C819.92,872.899 804.227,888.552 803.397,889.401Z" style="fill:rgb(81,67,82);"/>
        <path d="M693.792,771.618C694.543,775.478 694.165,775.405 694.208,783.562C693.394,783.974 692.58,784.387 691.766,784.8C691.787,784.058 691.942,778.442 688.245,776.221C692.369,772.559 692.165,772.491 693.792,771.618Z" style="fill:rgb(75,58,86);"/>
        <path d="M628.528,766.531C628.064,766.996 612.707,782.394 620.976,769.769C622.758,767.049 644.838,749.983 628.528,766.531Z" style="fill:rgb(122,66,86);"/>
        <path d="M622.469,830.892C622.704,830.702 624.734,829.051 625.639,828.846C635.086,826.696 637.923,830.117 638.593,830.925C630.455,831.182 630.669,830.992 622.469,830.892Z" style="fill:rgb(223,213,233);"/>
        <path d="M841.436,561.307C845.035,560.892 845.782,559.736 847.442,562.824C848.764,565.286 851.034,556.158 851.434,560.546C851.966,566.374 848.886,563.879 844.579,562.752C842.881,562.308 843.152,562.096 841.436,561.307Z" style="fill:rgb(17,22,41);"/>
        <path d="M854.593,602.212L858.713,604.16C856.104,609.023 851.414,607.766 851.575,604.562C852.488,603.476 854.331,602.369 854.593,602.212Z" style="fill:rgb(224,76,79);"/>
        <path d="M903.827,614.701C905.432,617.734 904.976,617.753 904.204,621.175C903.443,624.547 897.751,619.363 903.827,614.701Z" style="fill:rgb(196,67,77);"/>
        <path d="M757.259,563.621C762.215,562.591 761.999,562.038 762.429,561.987C765.211,561.654 762.081,569.34 757.259,563.621Z" style="fill:rgb(194,70,76);"/>
        <path d="M928.475,598.162C926.185,598.531 924.859,599.682 925.154,597.241C925.238,596.552 930.557,590.141 928.475,598.162Z" style="fill:rgb(19,25,43);"/>
        <path d="M990.521,654.573C989.895,650.196 991.482,648.711 992.247,650.62C993.736,654.333 990.865,654.548 990.521,654.573Z" style="fill:rgb(14,24,39);"/>
        <path d="M956.474,646.064C959.276,647.544 959.428,647.398 959.5,647.662C959.91,649.16 954.198,650.373 956.474,646.064Z" style="fill:rgb(15,28,39);"/>
        <path d="M726.969,504.657C727.049,504.316 727.862,500.85 729.576,501.13C733.479,501.767 727.289,504.515 726.969,504.657Z" style="fill:rgb(211,81,82);"/>
        <path d="M779.497,793.521C780.344,795.993 780.781,797.357 778.324,796.735C778.059,796.667 776.097,796.17 779.497,793.521Z" style="fill:rgb(14,22,40);"/>
        <path d="M795.507,788.654L794.47,789.5C794.296,789.566 784.854,793.175 792.207,788.975C792.438,788.844 792.452,788.951 795.507,788.654Z" style="fill:rgb(189,70,74);"/>
        <path d="M721.889,511.721C721.684,511.81 721.769,511.883 719.81,513.577C719.772,511.753 719.998,511.564 721.889,511.721Z" style="fill:rgb(208,81,85);"/>
        <path d="M645.478,856.492C645.304,856.777 645.658,857.21 645.484,857.496C645.033,858.236 643.524,857.779 643.576,857.5C643.608,857.331 643.576,857.5 645.478,856.492Z" style="fill:rgb(185,89,100);"/>
        <path d="M953.711,644.284C952.816,643.107 951.313,642.836 952.678,642.925C952.678,642.925 953.628,644.175 953.711,644.284Z" style="fill:rgb(17,26,44);"/>
        <path d="M734.5,585.5C734.626,585.49 736.072,585.374 736.072,585.374C736.09,585.499 736.072,585.374 734.5,585.5Z" style="fill:rgb(89,106,144);"/>
        <path d="M689.117,542.699C688.729,542.579 688.602,542.54 689.117,542.699Z" style="fill:rgb(166,93,107);"/>
    </g>
</svg>
